<svg xmlns="http://www.w3.org/2000/svg" viewBox="0 0 385.35 70.42"><defs><style>.cls-1{fill:#231f20;}.cls-2{fill:#ec4543;}.cls-3{fill:#fff;}</style></defs><title>horizontal with pin i</title><g id="Layer_2" data-name="Layer 2"><g id="finals_" data-name="finals?"><g id="horizontal_with_pin_i" data-name="horizontal with pin i"><path class="cls-1" d="M.54.16h18q7.19,0,10.15,4.91A9.83,9.83,0,0,1,30.06,10V30.76q0,6.75-8.21,9.55H9.28V69.83a.48.48,0,0,1-.54.54H.54A.48.48,0,0,1,0,69.83V.7Q.11.16.54.16ZM9.28,9.44V31.3h8.47c2-.29,3-1.28,3-3V12.2C20.42,10.36,19.5,9.44,18,9.44Z"/><path class="cls-1" d="M40.74,27.13H49c.36.05.54.16.54.34V70c0,.23-.18.34-.54.34H40.74c-.36,0-.54-.11-.54-.34V27.47A.5.5,0,0,1,40.74,27.13Z"/><path class="cls-1" d="M62.22.27h9q.54,0,10.9,37.4h.27V.81q.1-.54.54-.54h8.2q.54.1.54.54v69c0,.39-.18.59-.54.59H82.4q-1-.65-6-19.7-.27,0-5.18-18H71V69.83c0,.39-.18.59-.54.59h-8.2c-.36,0-.54-.2-.54-.59V.81Q61.79.27,62.22.27Z"/><path class="cls-1" d="M124.77.16h18q7.19,0,10.15,4.91A9.83,9.83,0,0,1,154.29,10V30.76q0,6.75-8.2,9.55H133.51V69.83a.48.48,0,0,1-.54.54h-8.2a.48.48,0,0,1-.54-.54V.7Q124.34.16,124.77.16Zm8.74,9.28V31.3H142c2-.29,3-1.28,3-3V12.2q-.54-2.76-2.76-2.76Z"/><path class="cls-1" d="M175.5.16h7.66q1.13,1.14,5.23,21.64,1.08,3.72,11,48.3l-.54.27h-8.53q-.81,0-3.29-13.17H171.66q-2.47,11.49-3.29,13.17h-8.79L159,70.1,175,.43Zm3.56,23.58-5.24,24.39h11l-5.5-24.39Z"/><path class="cls-1" d="M205.66,0h18.08q8.41,0,10.95,6.85a12.24,12.24,0,0,1,.54,3.29V30.38q0,7-7.66,9.61l-1.08.27q.54,1.89,11.22,29.84l-.54.27h-9.06q-1.29-1.78-8.74-22.45-3-7.66-3.29-7.66h-1.62V69.83q0,.54-.6.54h-8.2a.48.48,0,0,1-.54-.54V.54Q205.23,0,205.66,0Zm8.8,9.34V31.19h7.93q3.56,0,3.56-3.56V12.57c-.18-2.16-1.1-3.23-2.75-3.23Z"/><path class="cls-1" d="M249.8.16h8.47q.54.11.54.54V31.57h.27q11-29.52,12-31.41h9q.54,0,.54.81-12,31-12,32.27,11.7,30.33,13.92,37.13h-9.28q-.91,0-9.61-24.29h-.27q-4.63,12.09-4.64,13.12V69.83a.48.48,0,0,1-.54.54H249.8a.48.48,0,0,1-.54-.54V.7Q249.37.16,249.8.16Z"/><path class="cls-1" d="M290.76,27H299q.54.06.54.33V70c0,.23-.18.34-.54.34h-8.25c-.36,0-.54-.11-.54-.34V27.29A.5.5,0,0,1,290.76,27Z"/><path class="cls-1" d="M312.24.27h9q.54,0,10.9,37.4h.27V.81q.1-.54.54-.54h8.2q.54.1.54.54v69c0,.39-.18.59-.54.59h-8.74q-1-.65-6-19.7-.27,0-5.18-18H321V69.83c0,.39-.18.59-.54.59h-8.2c-.36,0-.54-.2-.54-.59V.81Q311.8.27,312.24.27Z"/><path class="cls-1" d="M375.53.43q9.83,1.62,9.82,9.55V20.13a.48.48,0,0,1-.54.54h-8.2a.48.48,0,0,1-.54-.54V12.47c0-2-1.18-3-3.56-3h-4.37q-3.56,0-3.56,3.56V57.79c0,2.38,1,3.56,3,3.56h5.72c1.84-.35,2.75-1.25,2.75-2.69v-20h-6a.48.48,0,0,1-.54-.54V30.22q.11-.54.54-.54h14.78q.54.06.54.54V60.81q0,7.51-8.74,9.56H364q-5.57,0-8.47-7.61a9.1,9.1,0,0,1-.27-2.21V10.79Q355.3,3,363.5.43Z"/><circle class="cls-2" cx="44.87" cy="7.41" r="7.14"/><circle class="cls-3" cx="44.87" cy="7.41" r="3.13"/><path class="cls-2" d="M50.88,11.27l-5.7,8.14a.44.44,0,0,1-.72,0l-5.6-8.14Z"/><circle class="cls-2" cx="294.89" cy="7.57" r="7.14"/><circle class="cls-3" cx="294.89" cy="7.57" r="3.13"/><path class="cls-2" d="M300.9,11.43l-5.7,8.14a.44.44,0,0,1-.72,0l-5.6-8.14Z"/></g></g></g></svg>